<svg baseProfile="tiny" xmlns="http://www.w3.org/2000/svg" preserveAspectRatio="xMinYMin meet" viewBox="0 0 3155 170" width="3155" height="170"><g><path fill="#fff" d="M24.4 6.2l-.8-.8-7.8 7.8L8 5.4l-.8.8L15 14l-7.8 7.8.8.8 7.8-7.8 7.8 7.8.8-.8-7.8-7.8z"/><g><path fill="#fff" d="M15.8 32l-.2-.1C15 31.7.9 26.1 1 20V0h30v20c0 6.7-14.4 11.7-15 11.9l-.2.1zM2 1v19c0 5.5 12.1 10.1 13.8 10.8C17.5 30.1 30 25.5 30 20V1H2z"/></g></g><g transform="translate(40)"><path fill="#fff" d="M20 12.3L3.5 1l-1 .7 17.5 12 17.5-12-1-.7zm0 10L3.5 11l-1 .7 17.5 12 17.5-12-1-.7z"/></g><g transform="translate(85)"><path fill="#fff" d="M5.2 47L23 4.7 21.9 2 3 47l18.9 45 1.1-2.7z"/></g><g transform="translate(115)"><path fill="#25AAE1" d="M16.7 20.5L28 4l-2-1-12 17.5L26 38l2-1zm-11 0L17 4l-2-1L3 20.5 15 38l2-1z"/></g><g transform="translate(150)"><path fill="#6FB581" d="M16.7 20.5L28 4l-2-1-12 17.5L26 38l2-1zm-11 0L17 4l-2-1L3 20.5 15 38l2-1z"/></g><g transform="translate(185)"><path fill="#fff" d="M20.8 47L3 89.3 4.1 92 23 47 4.1 2 3 4.7z"/></g><g transform="translate(215)"><path fill="#25AAE1" d="M14.3 20.5L3 37l2 1 12-17.5L5 3 3 4zm11 0L14 37l2 1 12-17.5L16 3l-2 1z"/></g><g transform="translate(250)"><path fill="#7EC248" d="M14.3 20.5L3 37l2 1 12-17.5L5 3 3 4zm11 0L14 37l2 1 12-17.5L16 3l-2 1z"/></g><g transform="translate(285)"><g fill="#25AAE1"><path d="M1 77h15.6v64.4H1V157h160v-15.6h-15.6V77H161V61.5H1V77zm20 0h15.6v64.4H21V77zm73.3 0H121v64.4H94.3V77zm-4.5 64.5H74.3V77h15.6v64.5zm-20 0H41V77h28.9v64.5zm86.7 4.4v6.7H5.4v-6.7h151.1zm-15.5-4.4h-15.6V77H141v64.5zM5.4 65.9h151.1v6.7H5.4v-6.7zM78.7 1.2L1 42.3V57h160V42.3L78.7 1.2zm77.8 51.4H5.4V45L78.8 6.2l77.7 38.9v7.5zm-91.1-20c0 7.4 6 13.3 13.3 13.3 7.4 0 13.3-6 13.3-13.3 0-7.4-6-13.3-13.3-13.3-7.3-.1-13.3 5.9-13.3 13.3zm22.2 0c0 4.9-4 8.9-8.9 8.9s-8.9-4-8.9-8.9 4-8.9 8.9-8.9 8.9 4 8.9 8.9z"/></g></g><g transform="translate(455)"><g fill="#6FB581"><path d="M7 37.1h7.8v31H7v7.5h80v-7.5h-7.8v-31H87v-7.5H7v7.5zm10 0h7.8v31H17v-31zm36.6 0H67v31H53.6v-31zm-2.2 31h-7.8v-31h7.8v31zm-10 0H27v-31h14.4v31zm43.3 2.2v3.2H9.2v-3.2h75.5zM77 68.1h-7.8v-31H77v31zM9.2 31.8h75.6V35H9.2v-3.2zM45.8.6L7 20.4v7.1h80v-7.1L45.8.6zm38.9 24.7H9.2v-3.6L45.9 3l38.9 18.7v3.6zm-45.5-9.6c0 3.5 3 6.4 6.7 6.4s6.7-2.9 6.7-6.4c0-3.5-3-6.4-6.7-6.4s-6.7 2.9-6.7 6.4zm11.1 0c0 2.4-2 4.3-4.4 4.3-2.5 0-4.4-1.9-4.4-4.3s2-4.3 4.4-4.3c2.4 0 4.4 1.9 4.4 4.3z"/></g></g><g transform="translate(555)"><g fill="#fff"><path d="M7 37.1h7.8v31H7v7.5h80v-7.5h-7.8v-31H87v-7.5H7v7.5zm10 0h7.8v31H17v-31zm36.6 0H67v31H53.6v-31zm-2.2 31h-7.8v-31h7.8v31zm-10 0H27v-31h14.4v31zm43.3 2.2v3.2H9.2v-3.2h75.5zM77 68.1h-7.8v-31H77v31zM9.2 31.8h75.6V35H9.2v-3.2zM45.8.6L7 20.4v7.1h80v-7.1L45.8.6zm38.9 24.7H9.2v-3.6L45.9 3l38.9 18.7v3.6zm-45.5-9.6c0 3.5 3 6.4 6.7 6.4s6.7-2.9 6.7-6.4c0-3.5-3-6.4-6.7-6.4s-6.7 2.9-6.7 6.4zm11.1 0c0 2.4-2 4.3-4.4 4.3-2.5 0-4.4-1.9-4.4-4.3s2-4.3 4.4-4.3c2.4 0 4.4 1.9 4.4 4.3z"/></g></g><g transform="translate(655)"><g fill="#25AAE1"><path d="M11.5 125.6h101.4V80.3h23.7v45.3h23.7V48H11.5v77.6zm4.3-73.3H156v69h-15.1V76h-32.4v45.3H15.8v-69zm51.7 47.4h30.2V76H67.5v23.7zm4.3-19.4h21.6v15.1H71.8V80.3zM26.5 99.7h30.2V76H26.5v23.7zm4.4-19.4h21.6v15.1H30.9V80.3zM154.1.5H17.3L.7 43.6h9.5c5 0 9.5-3.8 10.5-8.6h.5c1.1 4.8 5.5 8.6 10.5 8.6s9.5-3.8 10.5-8.6h.5c1.1 4.8 5.5 8.6 10.5 8.6s9.5-3.8 10.5-8.6h.5c1.1 4.8 5.5 8.6 10.5 8.6s9.5-3.8 10.5-8.6h.5c1.1 4.8 5.5 8.6 10.5 8.6s9.5-3.8 10.5-8.6h.5c1.1 4.8 5.5 8.6 10.5 8.6s9.5-3.8 10.5-8.6h.5c1.1 4.8 5.5 8.6 10.5 8.6s9.5-3.8 10.5-8.6h.5c1.1 4.8 5.5 8.6 10.5 8.6h9.5L154.1.5zm-.3 32.4v-2.2c0-2.4-1.9-4.3-4.3-4.3s-4.3 1.9-4.3 4.3v2.2c0 3-2.8 6.5-6.5 6.5-3.6 0-6.5-3.5-6.5-6.5v-2.2c0-2.4-1.9-4.3-4.3-4.3s-4.3 1.9-4.3 4.3v2.2c0 3-2.8 6.5-6.5 6.5-3.6 0-6.5-3.5-6.5-6.5v-2.2c0-2.4-1.9-4.3-4.3-4.3s-4.3 1.9-4.3 4.3v2.2c0 3-2.8 6.5-6.5 6.5-3.6 0-6.5-3.5-6.5-6.5v-2.2c0-2.4-1.9-4.3-4.3-4.3s-4.3 1.9-4.3 4.3v2.2c0 3-2.8 6.5-6.5 6.5s-6.5-3.5-6.5-6.5v-2.2c0-2.4-1.9-4.3-4.3-4.3s-4.3 1.9-4.3 4.3v2.2c0 3-2.8 6.5-6.5 6.5-3.6 0-6.5-3.5-6.5-6.5v-2.2c0-2.4-1.9-4.3-4.3-4.3s-4.3 1.9-4.3 4.3v2.2c0 3-2.8 6.5-6.5 6.5-3.6 0-6.5-3.5-6.5-6.5v-2.2c0-2.4-1.9-4.3-4.3-4.3s-4.3 1.9-4.3 4.3v2.2c0 3-1.9 6.5-5.6 6.5H6.7L20.3 4.8H151l13.6 34.5h-3.4c-3.7 0-7.4-3.5-7.4-6.4z"/></g></g><g transform="translate(835)"><g fill="#6FB581"><path d="M6.2 60h47V39h11v21h11V24h-69v36zm2-34h65v32h-7V37h-15v21h-43V26zm24 22h14V37h-14v11zm2-9h10v7h-10v-7zm-21 9h14V37h-14v11zm2-9h10v7h-10v-7zM72.3 2H8.9L1.2 22h4.4c2.3 0 4.4-1.8 4.9-4h.2c.5 2.2 2.6 4 4.9 4 2.3 0 4.4-1.8 4.9-4h.2c.5 2.2 2.6 4 4.9 4 2.3 0 4.4-1.8 4.9-4h.2c.5 2.2 2.6 4 4.9 4 2.3 0 4.4-1.8 4.9-4h.2c.5 2.2 2.6 4 4.9 4 2.3 0 4.4-1.8 4.9-4h.2c.5 2.2 2.6 4 4.9 4 2.3 0 4.4-1.8 4.9-4h.2c.5 2.2 2.6 4 4.9 4 2.3 0 4.4-1.8 4.9-4h.2c.5 2.2 2.6 4 4.9 4H80L72.3 2zm-.1 15v-1c0-1.1-.9-2-2-2s-2 .9-2 2v1c0 1.4-1.3 3-3 3s-3-1.6-3-3v-1c0-1.1-.9-2-2-2s-2 .9-2 2v1c0 1.4-1.3 3-3 3s-3-1.6-3-3v-1c0-1.1-.9-2-2-2s-2 .9-2 2v1c0 1.4-1.3 3-3 3s-3-1.6-3-3v-1c0-1.1-.9-2-2-2s-2 .9-2 2v1c0 1.4-1.3 3-3 3s-3-1.6-3-3v-1c0-1.1-.9-2-2-2s-2 .9-2 2v1c0 1.4-1.3 3-3 3s-3-1.6-3-3v-1c0-1.1-.9-2-2-2s-2 .9-2 2v1c0 1.4-1.3 3-3 3s-3-1.6-3-3v-1c0-1.1-.9-2-2-2s-2 .9-2 2v1c0 1.4-.9 3-2.6 3H4l6.3-16h60.6l6.3 16h-1.6c-1.7 0-3.4-1.6-3.4-3z"/></g></g><g transform="translate(920)"><g fill="#fff"><path d="M6.2 60h47V39h11v21h11V24h-69v36zm2-34h65v32h-7V37h-15v21h-43V26zm24 22h14V37h-14v11zm2-9h10v7h-10v-7zm-21 9h14V37h-14v11zm2-9h10v7h-10v-7zM72.3 2H8.9L1.2 22h4.4c2.3 0 4.4-1.8 4.9-4h.2c.5 2.2 2.6 4 4.9 4 2.3 0 4.4-1.8 4.9-4h.2c.5 2.2 2.6 4 4.9 4 2.3 0 4.4-1.8 4.9-4h.2c.5 2.2 2.6 4 4.9 4 2.3 0 4.4-1.8 4.9-4h.2c.5 2.2 2.6 4 4.9 4 2.3 0 4.4-1.8 4.9-4h.2c.5 2.2 2.6 4 4.9 4 2.3 0 4.4-1.8 4.9-4h.2c.5 2.2 2.6 4 4.9 4 2.3 0 4.4-1.8 4.9-4h.2c.5 2.2 2.6 4 4.9 4H80L72.3 2zm-.1 15v-1c0-1.1-.9-2-2-2s-2 .9-2 2v1c0 1.4-1.3 3-3 3s-3-1.6-3-3v-1c0-1.1-.9-2-2-2s-2 .9-2 2v1c0 1.4-1.3 3-3 3s-3-1.6-3-3v-1c0-1.1-.9-2-2-2s-2 .9-2 2v1c0 1.4-1.3 3-3 3s-3-1.6-3-3v-1c0-1.1-.9-2-2-2s-2 .9-2 2v1c0 1.4-1.3 3-3 3s-3-1.6-3-3v-1c0-1.1-.9-2-2-2s-2 .9-2 2v1c0 1.4-1.3 3-3 3s-3-1.6-3-3v-1c0-1.1-.9-2-2-2s-2 .9-2 2v1c0 1.4-1.3 3-3 3s-3-1.6-3-3v-1c0-1.1-.9-2-2-2s-2 .9-2 2v1c0 1.4-.9 3-2.6 3H4l6.3-16h60.6l6.3 16h-1.6c-1.7 0-3.4-1.6-3.4-3z"/></g></g><g transform="translate(1005)"><g fill="#fff"><path d="M34 8h-2v1h2c1.9 0 4 1.1 4 3v7c0 1.9-2.1 4-4 4h-2l-.1 3.3L28 23H18c-1.1 0-1.4-.2-2-1h-2c.8 1.4 2.3 2 4 2h10l5 5v-5h1.1c2.6 0 4.9-2.5 4.9-5v-7c0-2.5-2.4-4-5-4zm-8 12c3 0 5-2 5-5V7c0-3-2-6-5-6H6C3 1 1 3 1 6v9c0 3 2 5 5 5h2v6l6-6h12zm-13-1l-4 4v-4H6c-2.4 0-4.1-1.8-4.1-4.1V6.6C1.9 4.2 3.6 2 6 2h20c2.4 0 4 2.2 4 4.6v8.3c0 2.4-1.6 4.1-4 4.1H13z"/></g></g><g transform="translate(1050)"><g fill-rule="evenodd" clip-rule="evenodd" fill="#25AAE1"><path d="M171 106.1H11v14h20v30h22v-30h6v30h22v-30h20v30h22v-30h6v30h22v-30h20v-14zm-122 40H35v-26h14v26zm28 0H63v-26h14v26zm42 0h-14v-26h14v26zm28 0h-14v-26h14v26zm20-30H15v-6h152v6zm-152-56H5v-18h32v38H23v22h134v-22h-50v-74H91v-4h-4v4H71v74H41v-38h16v-4l-18-20-38 20v26h14v-4zm87.5-14.3l.4.5v24.2L91.2 58.2l11.3-12.4zM91 52.4v-19l8.8 9.4-8.8 9.6zm12-12.9l-.5.5L91 27.9l12-12.6v24.2zM87 53.7L76.7 42.9 87 32.1v21.6zm4 9.8l12 12.8v3.8H91V63.5zm11.3-53.4L91 21.7V10.1h11.3zm-15.3 0v13.6L75 11v-.9h12zm-1.7 17.3L75 38V16.4l10.3 11zM75 46.4L85.8 58 75 69.8V46.4zm0 29.5l12-13.1v17.3H75v-4.2zm78 8.2v14H27v-14h126zm-112-46V24.4l12.2 13.8H41zm-4-15v15H7l30-15z"/></g></g><g transform="translate(1230)"><g fill-rule="evenodd" clip-rule="evenodd" fill="#6FB581"><path d="M87 55H7v7h10v15h11V62h3v15h11V62h10v15h11V62h3v15h11V62h10v-7zM26 75h-7V62h7v13zm14 0h-7V62h7v13zm21 0h-7V62h7v13zm14 0h-7V62h7v13zm10-15H9v-3h76v3zM9 32H4v-9h16v19h-7v11h67V42H55V5h-8V3h-2v2h-8v37H22V23h8v-2l-9-10L2 21v13h7v-2zm43.8-7.1l.2.2v12.1L47.1 31l5.7-6.1zM47 28.2v-9.5l4.4 4.7-4.4 4.8zm6-6.5l-.2.3-5.8-6.1 6-6.3v12.1zm-8 7.1l-5.1-5.4L45 18v10.8zm2 4.9l6 6.4V42h-6v-8.3zM52.7 7L47 12.8V7h5.7zM45 7v6.8l-6-6.3V7h6zm-.8 8.7L39 21V10.1l5.2 5.6zM39 25.1l5.4 5.8-5.4 5.9V25.1zm0 14.8l6-6.5V42h-6v-2.1zM78 44v7H15v-7h63zM22 21v-6.9l6.1 6.9H22zm-2-7.5V21H5l15-7.5z"/></g></g><g transform="translate(1325)"><g fill-rule="evenodd" clip-rule="evenodd" fill="#fff"><path d="M87 55H7v7h10v15h11V62h3v15h11V62h10v15h11V62h3v15h11V62h10v-7zM26 75h-7V62h7v13zm14 0h-7V62h7v13zm21 0h-7V62h7v13zm14 0h-7V62h7v13zm10-15H9v-3h76v3zM9 32H4v-9h16v19h-7v11h67V42H55V5h-8V3h-2v2h-8v37H22V23h8v-2l-9-10L2 21v13h7v-2zm43.8-7.1l.2.2v12.1L47.1 31l5.7-6.1zM47 28.2v-9.5l4.4 4.7-4.4 4.8zm6-6.5l-.2.3-5.8-6.1 6-6.3v12.1zm-8 7.1l-5.1-5.4L45 18v10.8zm2 4.9l6 6.4V42h-6v-8.3zM52.7 7L47 12.8V7h5.7zM45 7v6.8l-6-6.3V7h6zm-.8 8.7L39 21V10.1l5.2 5.6zM39 25.1l5.4 5.8-5.4 5.9V25.1zm0 14.8l6-6.5V42h-6v-2.1zM78 44v7H15v-7h63zM22 21v-6.9l6.1 6.9H22zm-2-7.5V21H5l15-7.5z"/></g></g><g transform="translate(1420)"><g><path fill="#fff" d="M35 23h-7V1h7v22zm-6-1h5V2h-5v20z"/></g><g><path fill="#fff" d="M17 23h-7V13h7v10zm-6-1h5v-8h-5v8z"/></g><g><path fill="#fff" d="M8 23H1v-6h7v6zm-6-1h5v-4H2v4z"/></g><g><path fill="#fff" d="M26 23h-7V8h7v15zm-6-1h5V9h-5v13z"/></g></g><g transform="translate(1465)"><g><path fill="#fff" d="M30 8l-6-6H7v6H1v33h23v-6h6V8zm-6-4l4 4h-4V4zM2 40V9h15v6h6v25H2zm16-30l4 4h-4v-4zm6 24V14l-6-6H8V3h15v6h6v25h-5z"/><g><path fill="#fff" d="M5 19h15v1H5z"/></g><g><path fill="#fff" d="M5 23h15v1H5z"/></g><g><path fill="#fff" d="M5 27h15v1H5z"/></g><g><path fill="#fff" d="M5 31h15v1H5z"/></g><g><path fill="#fff" d="M5 35h15v1H5z"/></g></g></g><g transform="translate(1505)"><g fill="#25AAE1"><path d="M107.2 74V41L43.5 74V0H1v160.6h170V41l-63.8 33zM5.7 4.7h33.1V26H5.7V4.7zm0 26h33.1V52H5.7V30.7zm0 26h33.1V78H5.7V56.7zm160.5 99.1H5.7V82.6h37.8v-3.3l59-30.6v33.1l63.8-33.1v107.1zm-9.4-49.5h-28.3V137h28.3v-30.7zm-4.7 25.9h-18.9V111h18.9v21.2zm-61.4 4.7H119v-30.7H90.7v30.7zm4.7-25.9h18.9v21.2H95.4V111zm-42.5 25.9h28.3v-30.7H52.9v30.7zm4.7-25.9h18.9v21.2H57.6V111zm-42.5 25.9h28.3v-30.7H15.1v30.7zm4.7-25.9h18.9v21.2H19.8V111z"/></g></g><g transform="translate(1685)"><g fill="#6FB581"><path d="M47 32.4v-14l-27 14V1H2v68h72V18.4l-27 14zM4 3h14v9H4V3zm0 11h14v9H4v-9zm0 11h14v9H4v-9zm68 42H4V36h16v-1.4l25-13v14l27-14V67zm-4-21H56v13h12V46zm-2 11h-8v-9h8v9zm-26 2h12V46H40v13zm2-11h8v9h-8v-9zM24 59h12V46H24v13zm2-11h8v9h-8v-9zM8 59h12V46H8v13zm2-11h8v9h-8v-9z"/></g></g><g transform="translate(1765)"><g fill="#fff"><path d="M47 32.4v-14l-27 14V1H2v68h72V18.4l-27 14zM4 3h14v9H4V3zm0 11h14v9H4v-9zm0 11h14v9H4v-9zm68 42H4V36h16v-1.4l25-13v14l27-14V67zm-4-21H56v13h12V46zm-2 11h-8v-9h8v9zm-26 2h12V46H40v13zm2-11h8v9h-8v-9zM24 59h12V46H24v13zm2-11h8v9h-8v-9zM8 59h12V46H8v13zm2-11h8v9h-8v-9z"/></g></g><g transform="translate(1845)"><g fill-rule="evenodd" clip-rule="evenodd" fill="#25AAE1"><path d="M138 82V67.6h16.4v-9.4L93 25.5v-7h22.5V2.2H88.9v23.3L27.5 58.2v9.4h16.4V82H1v69.5h179.9V82H138zM93 6.3h18.4v8.2H93V6.3zM31.6 63.5v-2.9L91 29l59.3 31.6v2.9H31.6zm102.3 4.1v8.2H48v-8.2h85.9zm-90 79.8H5V86h38.9v61.4zM48 82v-2h14.3v67.5H48V82zm32.7 65.4V131c0-5.6 4.6-10.2 10.2-10.2s10.2 4.6 10.2 10.2v16.4H80.7zM91 116.7c-7.9 0-14.3 6.4-14.3 14.3v16.4H66.4V79.9h49.1v67.5h-10.2V131c0-7.8-6.5-14.3-14.3-14.3zm42.9 30.7h-14.3V79.9h14.3v67.5zm43 0H138V86h38.9v61.4zm-8.2-53.2h-22.5v18.4h22.5V94.2zm-4.1 14.3h-14.3V98.3h14.3v10.2zm-59.3-20.4H76.6v20.5h28.6V88.1zm-4.1 16.4H80.7V92.2h20.5v12.3zm67.5 16.3h-22.5v18.4h22.5v-18.4zm-4.1 14.3h-14.3v-10.2h14.3v10.2zM35.7 94.2H13.2v18.4h22.5V94.2zm-4.1 14.3H17.3V98.3h14.3v10.2zm4.1 12.3H13.2v18.4h22.5v-18.4zm-4.1 14.3H17.3v-10.2h14.3v10.2zM91 39c-5.6 0-10.2 4.6-10.2 10.2S85.4 59.4 91 59.4s10.2-4.6 10.2-10.2S96.6 39 91 39zm0 16.4c-3.4 0-6.1-2.8-6.1-6.1 0-3.4 2.8-6.1 6.1-6.1 3.4 0 6.1 2.8 6.1 6.1s-2.8 6.1-6.1 6.1z"/></g></g><g transform="translate(2035)"><g fill-rule="evenodd" clip-rule="evenodd" fill="#6FB581"><path d="M68 40v-7h8v-4.6l-30-16V9h11V1H44v11.4l-30 16V33h8v7H1v34h88V40H68zM46 3h9v4h-9V3zM16 31v-1.4l29-15.5 29 15.5V31H16zm50 2v4H24v-4h42zM22 72H3V42h19v30zm2-32v-1h7v33h-7V40zm16 32v-8c0-2.8 2.2-5 5-5s5 2.2 5 5v8H40zm5-15c-3.9 0-7 3.1-7 7v8h-5V39h24v33h-5v-8c0-3.9-3.1-7-7-7zm21 15h-7V39h7v33zm21 0H68V42h19v30zm-4-26H72v9h11v-9zm-2 7h-7v-5h7v5zM52 43H38v10h14V43zm-2 8H40v-6h10v6zm33 8H72v9h11v-9zm-2 7h-7v-5h7v5zM18 46H7v9h11v-9zm-2 7H9v-5h7v5zm2 6H7v9h11v-9zm-2 7H9v-5h7v5zm29-47c-2.8 0-5 2.2-5 5s2.2 5 5 5 5-2.2 5-5-2.2-5-5-5zm0 8c-1.7 0-3-1.3-3-3s1.3-3 3-3 3 1.3 3 3-1.3 3-3 3z"/></g></g><g transform="translate(2130)"><g fill-rule="evenodd" clip-rule="evenodd" fill="#fff"><path d="M68 40v-7h8v-4.6l-30-16V9h11V1H44v11.4l-30 16V33h8v7H1v34h88V40H68zM46 3h9v4h-9V3zM16 31v-1.4l29-15.5 29 15.5V31H16zm50 2v4H24v-4h42zM22 72H3V42h19v30zm2-32v-1h7v33h-7V40zm16 32v-8c0-2.8 2.2-5 5-5s5 2.2 5 5v8H40zm5-15c-3.9 0-7 3.1-7 7v8h-5V39h24v33h-5v-8c0-3.9-3.1-7-7-7zm21 15h-7V39h7v33zm21 0H68V42h19v30zm-4-26H72v9h11v-9zm-2 7h-7v-5h7v5zM52 43H38v10h14V43zm-2 8H40v-6h10v6zm33 8H72v9h11v-9zm-2 7h-7v-5h7v5zM18 46H7v9h11v-9zm-2 7H9v-5h7v5zm2 6H7v9h11v-9zm-2 7H9v-5h7v5zm29-47c-2.8 0-5 2.2-5 5s2.2 5 5 5 5-2.2 5-5-2.2-5-5-5zm0 8c-1.7 0-3-1.3-3-3s1.3-3 3-3 3 1.3 3 3-1.3 3-3 3z"/></g></g><g transform="translate(2225)"><g fill="#25AAE1"><path d="M108.3 51.6V27.8h13.2L85.7.9 49.8 27.8H63v23.8L.7 76.9h20.8v62.3h128.4V76.9h20.8l-62.4-25.3zM61.1 24L85.7 5.6 110.2 24H61.1zm24.6 7.6c-7.3 0-11.3 4-11.3 11.3v4l-7.6 2.7V27.8h37.8v21.9L97 46.9v-4c0-7.3-4-11.3-11.3-11.3zm7.5 11.3v2.6L86.3 43l-.7-.3-.6.3-6.9 2.5v-2.6c0-5.2 2.3-7.6 7.6-7.6s7.5 2.4 7.5 7.6zm24.6 92.6H53.6v-5.7h64.2v5.7zm-34-15.2h26.5v5.7H61.1v-5.7h22.7zm-15.1-3.7V90.1h15.1v26.4H68.7zm18.9 0V90.1h15.1v26.4H87.6zm58.5 18.9h-24.6V126H114v-9.4h-7.6V86.3H64.9v30.2h-7.6v9.4h-7.6v9.4H25.2V76.9h120.9v58.6zM20.7 73.1l53.6-21.9v.1l11.3-4.5L97 51.4v-.1l53.6 21.9H20.7zm34.7 13.2H34.7V109h20.8V86.3zm-3.7 18.9H38.4V90.1h13.2v15.1zm85-18.9h-20.8V109h20.8V86.3zm-3.8 18.9h-13.2V90.1h13.2v15.1z"/></g></g><g transform="translate(2405)"><g fill="#6FB581"><path d="M92 42L59 28.6V16h7L47 1.8 28 16h7v12.6L2 42h11v33h68V42h11zM51 25.4l-3.7-1.3-.3-.2-.3.1-3.7 1.4V24c0-2.8 1.2-4 4-4s4 1.2 4 4v1.4zM34 14l13-9.8L60 14H34zm23 2v11.6l-4-1.5V24c0-3.9-2.1-6-6-6s-6 2.1-6 6v2.1l-4 1.5V16h20zM12.6 40L41 28.4v.1l6-2.4 6 2.4v-.1L81.4 40H12.6zM30 73v-3h34v3H30zm26-10h-8V49h8v14zm-10 0h-8V49h8v14zm0 2h14v3H34v-3h12zm33 8H66v-5h-4v-5h-4V47H36v16h-4v5h-4v5H15V42h64v31zM31 47H20v12h11V47zm-2 10h-7v-8h7v8zm45-10H63v12h11V47zm-2 10h-7v-8h7v8z"/></g></g><g transform="translate(2505)"><g fill="#fff"><path d="M92 42L59 28.6V16h7L47 1.8 28 16h7v12.6L2 42h11v33h68V42h11zM51 25.4l-3.7-1.3-.3-.2-.3.1-3.7 1.4V24c0-2.8 1.2-4 4-4s4 1.2 4 4v1.4zM34 14l13-9.8L60 14H34zm23 2v11.6l-4-1.5V24c0-3.9-2.1-6-6-6s-6 2.1-6 6v2.1l-4 1.5V16h20zM12.6 40L41 28.4v.1l6-2.4 6 2.4v-.1L81.4 40H12.6zM30 73v-3h34v3H30zm26-10h-8V49h8v14zm-10 0h-8V49h8v14zm0 2h14v3H34v-3h12zm33 8H66v-5h-4v-5h-4V47H36v16h-4v5h-4v5H15V42h64v31zM31 47H20v12h11V47zm-2 10h-7v-8h7v8zm45-10H63v12h11V47zm-2 10h-7v-8h7v8z"/></g></g><g transform="translate(2605)"><g fill-rule="evenodd" clip-rule="evenodd" fill="#25AAE1"><path d="M48.6 62H27.7v17.1h20.9V62zm-3.8 13.3H31.5v-9.5h13.3v9.5zM81 62H60v17.1h21V62zm-3.8 13.3H63.8v-9.5h13.3v9.5zm38-13.3H94.3v17.1h20.9V62zm-3.8 13.3H98.1v-9.5h13.3v9.5zM145.7 62h-20.9v17.1h20.9V62zm-3.8 13.3h-13.3v-9.5h13.3v9.5zm3.8 13.3h-20.9v17.1h20.9V88.6zm-3.8 13.4h-13.3v-9.5h13.3v9.5zM48.6 88.6H27.7v17.1h20.9V88.6zM44.8 102H31.5v-9.5h13.3v9.5zm126.9-49.5l-17.3-32.4h-48.7v-19H67.6v19H18.9L1.7 52.5h12.7v78H159v-78h12.7zM71.4 4.9h30.4v30.4H71.4V4.9zM8 48.7L21.2 24h46.4v15.2h38.1V23.9h46.4l13.2 24.7H8zm57.7 78V92.4h19v34.3h-19zm22.9 0V92.4h19v34.3h-19zm66.6 0h-43.8V88.6H61.9v38.1H18.2V52.5h137v74.2zM84.8 31.5h3.8V22h9.5v-3.8h-9.5V8.7h-3.8v9.5h-9.6V22h9.6z"/></g></g><g transform="translate(2785)"><g fill-rule="evenodd" clip-rule="evenodd" fill="#6FB581"><path d="M26 33H15v9h11v-9zm-2 7h-7v-5h7v5zm19-7H32v9h11v-9zm-2 7h-7v-5h7v5zm20-7H50v9h11v-9zm-2 7h-7v-5h7v5zm18-7H66v9h11v-9zm-2 7h-7v-5h7v5zm2 7H66v9h11v-9zm-2 7h-7v-5h7v5zm-49-7H15v9h11v-9zm-2 7h-7v-5h7v5zm66.7-26l-9.1-17H56V1H36v10H10.4L1.3 28H8v41h76V28h6.7zM38 3h16v16H38V3zM4.7 26l6.9-13H36v8h20v-8h24.4l6.9 13H4.7zM35 67V49h10v18H35zm12 0V49h10v18H47zm35 0H59V47H33v20H10V28h72v39zM45 17h2v-5h5v-2h-5V5h-2v5h-5v2h5z"/></g></g><g transform="translate(2885)"><g fill-rule="evenodd" clip-rule="evenodd" fill="#fff"><path d="M26 33H15v9h11v-9zm-2 7h-7v-5h7v5zm19-7H32v9h11v-9zm-2 7h-7v-5h7v5zm20-7H50v9h11v-9zm-2 7h-7v-5h7v5zm18-7H66v9h11v-9zm-2 7h-7v-5h7v5zm2 7H66v9h11v-9zm-2 7h-7v-5h7v5zm-49-7H15v9h11v-9zm-2 7h-7v-5h7v5zm66.7-26l-9.1-17H56V1H36v10H10.4L1.3 28H8v41h76V28h6.7zM38 3h16v16H38V3zM4.7 26l6.9-13H36v8h20v-8h24.4l6.9 13H4.7zM35 67V49h10v18H35zm12 0V49h10v18H47zm35 0H59V47H33v20H10V28h72v39zM45 17h2v-5h5v-2h-5V5h-2v5h-5v2h5z"/></g></g><g transform="translate(2985)"><path fill="#fff" d="M40 1H4C2.4 1 1 2.5 1 4v20c0 1.6 1.4 3 3 3h14c-.2 2.8-2 6-6 6v1h20v-1c-3.9 0-5.8-3.2-6-6h14c1.6 0 3-1.4 3-3V4c0-1.5-1.4-3-3-3zM4 2h36c.9 0 2 1.1 2 2v17H2V4c0-.9 1.1-2 2-2zm24 31H16c1.9-1.3 2.9-3.9 3-6h6c.1 2.1 1.1 4.7 3 6zm12-7H4c-.9 0-2-1-2-2v-2h40v2c0 1-1.1 2-2 2z"/></g><g transform="translate(3035)"><g fill="#fff"><path d="M18 2v12h13V2H18zm12 11H19V3h11v10zM18 23v12h13V23H18zm12 11H19V24h11v10zm6-11v12h13V23H36zm12 11H37V24h11v10zM0 23v12h13V23H0zm12 11H1V24h11v10zm12-20h1v9h-1zm18 4h1v5h-1zM6 18h1v5H6zm0 0h37v1H6z"/></g></g><g transform="translate(3090)"><linearGradient id="a" gradientUnits="userSpaceOnUse" x1="9.353" y1=".53" x2="9.353" y2="17.237"><stop offset="0" stop-color="#7EC248"/><stop offset="1" stop-color="#25AAE1"/></linearGradient><path fill="url(#a)" d="M16.4 17.2c-.3 0-.7-.1-.9-.4l-3.4-3.4c-1.2.8-2.6 1.2-4 1.2-3.9.1-7.1-3.1-7.1-7S4.2.5 8.1.5c3.9 0 7.1 3.2 7.1 7.1 0 1.4-.4 2.8-1.2 4l3.4 3.4c.2.2.4.6.4.9-.1.8-.7 1.3-1.4 1.3zM8.1 3.1c-2.5 0-4.5 2-4.5 4.5s2 4.5 4.5 4.5 4.5-2 4.5-4.5-2.1-4.5-4.5-4.5z"/></g><g transform="translate(3115)"><g fill="#fff"><path d="M32.8 18.8V15l-4.5-2.5c-.1-.2-.2-.5-.3-.7L29.4 7l-2.7-2.7-4.9 1.4c-.2-.1-.5-.2-.7-.3L18.7 1h-3.8l-2.5 4.5c-.2.1-.5.2-.7.3L6.8 4.3 4.2 7l1.4 4.9c-.1.2-.2.5-.3.7L.8 15.1v3.8l4.5 2.5c.1.2.2.5.3.7L4.2 27l2.7 2.7 4.9-1.4c.2.1.5.2.7.3l2.5 4.5h3.8l2.5-4.5c.2-.1.5-.2.7-.3l4.9 1.4 2.7-2.7-1.6-5c.1-.2.2-.5.3-.7l4.5-2.5zm-4.1-4.9l3.2 1.7v2.7L28.7 20c.3-1 .4-2 .4-3.1 0-1-.2-2-.4-3zM4.9 20l-3.2-1.7v-2.7l3.2-1.7c-.2 1-.4 2-.4 3.1 0 1 .1 2.1.4 3zM26.5 5.4l1.9 1.9-1 3.5C26.3 9 24.8 7.5 23 6.4l3.5-1zm-11-3.5h2.7l1.7 3.2c-1-.2-2-.4-3.1-.4s-2.1.2-3.1.4l1.8-3.2zM5.2 7.3l1.9-1.9 3.5 1C8.8 7.5 7.3 9 6.2 10.7l-1-3.4zm1.9 21.3l-1.9-1.9 1-3.5c1.1 1.8 2.6 3.3 4.4 4.4l-3.5 1zm11 3.4h-2.7l-1.7-3.2c1 .3 2 .4 3.1.4s2.1-.1 3.1-.4L18.1 32zm10.3-5.3l-1.9 1.9-3.5-1c1.8-1.1 3.3-2.6 4.3-4.4l1.1 3.5zm-11.6 1.6c-6.3 0-11.4-5.1-11.4-11.4 0-6.3 5.1-11.4 11.4-11.4 6.3 0 11.4 5.1 11.4 11.4-.1 6.3-5.2 11.4-11.4 11.4zM10.3 17c0 3.6 2.9 6.5 6.5 6.5s6.5-2.9 6.5-6.5-2.9-6.5-6.5-6.5-6.5 2.9-6.5 6.5zm12.1 0c0 3.1-2.5 5.6-5.6 5.6-3.1 0-5.6-2.5-5.6-5.6 0-3.1 2.5-5.6 5.6-5.6 3.1 0 5.6 2.5 5.6 5.6z"/></g></g></svg>