<svg baseProfile="tiny" xmlns="http://www.w3.org/2000/svg" preserveAspectRatio="xMinYMin meet" viewBox="0 0 120 100" width="120" height="100"><path fill="#fff" d="M5.2 47L23 4.7 21.9 2 3 47l18.9 45 1.1-2.7z"/><g transform="translate(30)"><linearGradient id="a" gradientUnits="userSpaceOnUse" x1="11" y1="2" x2="11" y2="92"><stop offset="0" stop-color="#7EC248"/><stop offset="1" stop-color="#25AAE1"/></linearGradient><path fill="url(#a)" d="M3.2 47L21 4.7 19.9 2 1 47l18.9 45 1.1-2.7z"/></g><g transform="translate(60)"><path fill="#fff" d="M20.8 47L3 89.3 4.1 92 23 47 4.1 2 3 4.7z"/></g><g transform="translate(90)"><linearGradient id="b" gradientUnits="userSpaceOnUse" x1="11" y1="2" x2="11" y2="92"><stop offset="0" stop-color="#7EC248"/><stop offset="1" stop-color="#25AAE1"/></linearGradient><path fill="url(#b)" d="M18.8 47L1 89.3 2.1 92 21 47 2.1 2 1 4.7z"/></g></svg>